<?xml version="1.0" standalone="no"?>
<svg xmlns:xlink="http://www.w3.org/1999/xlink" id="wave" style="transform:rotate(180deg); transition: 0.3s" viewBox="0 0 1440 180" version="1.1" xmlns="http://www.w3.org/2000/svg"><defs><linearGradient id="sw-gradient-0" x1="0" x2="0" y1="1" y2="0"><stop stop-color="rgba(0, 0, 0, 1)" offset="0%"/><stop stop-color="rgba(0, 0, 0, 1)" offset="100%"/></linearGradient></defs><path style="transform:translate(0, 0px); opacity:1" fill="url(#sw-gradient-0)" d="M0,162L26.7,135C53.3,108,107,54,160,45C213.3,36,267,72,320,78C373.3,84,427,60,480,45C533.3,30,587,24,640,45C693.3,66,747,114,800,114C853.3,114,907,66,960,48C1013.3,30,1067,42,1120,63C1173.3,84,1227,114,1280,120C1333.3,126,1387,108,1440,93C1493.3,78,1547,66,1600,69C1653.3,72,1707,90,1760,99C1813.3,108,1867,108,1920,99C1973.3,90,2027,72,2080,60C2133.3,48,2187,42,2240,39C2293.3,36,2347,36,2400,48C2453.3,60,2507,84,2560,87C2613.3,90,2667,72,2720,81C2773.3,90,2827,126,2880,126C2933.3,126,2987,90,3040,84C3093.3,78,3147,102,3200,102C3253.3,102,3307,78,3360,57C3413.3,36,3467,18,3520,15C3573.3,12,3627,24,3680,36C3733.3,48,3787,60,3813,66L3840,72L3840,180L3813.3,180C3786.7,180,3733,180,3680,180C3626.7,180,3573,180,3520,180C3466.7,180,3413,180,3360,180C3306.7,180,3253,180,3200,180C3146.7,180,3093,180,3040,180C2986.7,180,2933,180,2880,180C2826.7,180,2773,180,2720,180C2666.7,180,2613,180,2560,180C2506.7,180,2453,180,2400,180C2346.7,180,2293,180,2240,180C2186.7,180,2133,180,2080,180C2026.7,180,1973,180,1920,180C1866.7,180,1813,180,1760,180C1706.7,180,1653,180,1600,180C1546.7,180,1493,180,1440,180C1386.7,180,1333,180,1280,180C1226.7,180,1173,180,1120,180C1066.7,180,1013,180,960,180C906.7,180,853,180,800,180C746.7,180,693,180,640,180C586.7,180,533,180,480,180C426.7,180,373,180,320,180C266.7,180,213,180,160,180C106.7,180,53,180,27,180L0,180Z"/></svg>